<?xml version="1.0" encoding="utf-8"?>
<svg version="1.1" xmlns:xlink="http://www.w3.org/1999/xlink" width="50px" height="43px" xmlns="http://www.w3.org/2000/svg">
  <g transform="matrix(1 0 0 1 -360 -653 )">
    <path d="M 33.7332589285714 36.7291666666667  C 35.5003720238095 36.1319444444444  37.0535714285714 35.8333333333333  38.3928571428571 35.8333333333333  L 39 35.8333333333333  L 39 17.9166666666667  L 38.3928571428571 17.9166666666667  C 37.7418154761905 17.9166666666667  37.1140252976191 17.8046875  36.5094866071429 17.5807291666667  C 35.9049479166667 17.3567708333333  35.3236607142857 17.0115017361111  34.765625 16.544921875  C 34.2075892857143 16.0783420138889  33.7425595238095 15.6490885416667  33.3705357142857 15.2571614583333  C 32.9985119047619 14.865234375  32.5427827380952 14.361328125  32.0033482142857 13.7454427083333  C 31.8545386904762 13.5774739583333  31.7429315476191 13.4468315972222  31.6685267857143 13.353515625  C 30.3292410714286 11.841796875  29.2875744047619 10.4887152777778  28.5435267857143 9.29427083333334  C 28.2831101190476 8.88368055555556  27.9296875 8.24913194444444  27.4832589285714 7.390625  C 27.4646577380952 7.33463541666667  27.3670014880952 7.12467447916667  27.1902901785714 6.7607421875  C 27.0135788690476 6.39680989583333  26.8415178571429 6.06087239583333  26.6741071428571 5.7529296875  C 26.5066964285714 5.44498697916667  26.3206845238095 5.11371527777778  26.1160714285714 4.75911458333333  C 25.9114583333333 4.40451388888888  25.7114955357143 4.11990017361111  25.5161830357143 3.9052734375  C 25.3208705357143 3.69064670138889  25.1488095238095 3.58333333333333  25 3.58333333333333  C 23.6793154761905 3.58333333333333  22.6050967261905 3.86794704861111  21.77734375 4.43717447916667  C 20.9495907738095 5.00640190972222  20.5357142857143 5.91623263888888  20.5357142857143 7.16666666666667  C 20.5357142857143 7.96918402777778  20.6752232142857 8.75770399305556  20.9542410714286 9.5322265625  C 21.2332589285714 10.3067491319444  21.5401785714286 10.9412977430556  21.875 11.4358723958333  C 22.2098214285714 11.9304470486111  22.5167410714286 12.4436848958333  22.7957589285714 12.9755859375  C 23.0747767857143 13.5074869791667  23.2142857142857 13.9600694444444  23.2142857142857 15  L 7.14285714285714 15  C 6.21279761904762 14.3333333333333  5.38504464285714 14.6925998263889  4.65959821428571 15.4111328125  C 3.93415178571429 16.1296657986111  3.57142857142857 16.96484375  3.57142857142857 17.9166666666667  C 3.57142857142857 18.8871527777778  3.92485119047619 19.7269965277778  4.63169642857143 20.4361979166667  C 5.33854166666667 21.1453993055556  6.17559523809524 21.5  7.14285714285714 21.5  L 16.3783482142857 21.5  C 16.0993303571429 21.8172743055556  15.8668154761905 22.2605251736111  15.6808035714286 22.8297526041667  C 15.4947916666667 23.3989800347222  15.4017857142857 23.9168836805556  15.4017857142857 24.3834635416667  C 15.4017857142857 25.6712239583333  15.8947172619048 26.7816840277778  16.8805803571429 27.71484375  C 16.5457589285714 28.3120659722222  16.3783482142857 28.9559461805556  16.3783482142857 29.646484375  C 16.3783482142857 30.3370225694444  16.5411086309524 31.0228949652778  16.8666294642857 31.7041015625  C 17.1921502976191 32.3853081597222  17.6339285714286 32.8752170138889  18.1919642857143 33.173828125  C 18.1175595238095 33.6217447916667  18.0803571428571 34.1443142361111  18.0803571428571 34.7415364583333  C 18.0803571428571 36.3279079861111  18.5314360119048 37.5036892361111  19.43359375 38.2688802083333  C 20.3357514880952 39.0340711805556  21.5959821428571 39.4166666666667  23.2142857142857 39.4166666666667  C 24.7767857142857 39.4166666666667  26.4787946428571 39.1180555555556  28.3203125 38.5208333333333  C 30.1618303571429 37.9236111111111  31.9661458333333 37.3263888888889  33.7332589285714 36.7291666666667  Z M 45.8984375 35.3014322916667  C 46.2518601190476 34.9468315972222  46.4285714285714 34.5269097222222  46.4285714285714 34.0416666666667  C 46.4285714285714 33.5564236111111  46.2518601190476 33.1365017361111  45.8984375 32.7819010416667  C 45.5450148809524 32.4273003472222  45.1264880952381 32.25  44.6428571428571 32.25  C 44.1592261904762 32.25  43.7406994047619 32.4273003472222  43.3872767857143 32.7819010416667  C 43.0338541666667 33.1365017361111  42.8571428571429 33.5564236111111  42.8571428571429 34.0416666666667  C 42.8571428571429 34.5269097222222  43.0338541666667 34.9468315972222  43.3872767857143 35.3014322916667  C 43.7406994047619 35.6560329861111  44.1592261904762 35.8333333333333  44.6428571428571 35.8333333333333  C 45.1264880952381 35.8333333333333  45.5450148809524 35.6560329861111  45.8984375 35.3014322916667  Z M 48.9536830357143 15.3831380208333  C 49.6512276785714 16.0830078125  50 16.9275173611111  50 17.9166666666667  L 50 35.8333333333333  C 50 36.8224826388889  49.6512276785714 37.6669921875  48.9536830357143 38.3668619791667  C 48.2561383928571 39.0667317708333  47.4144345238095 39.4166666666667  46.4285714285714 39.4166666666667  L 38.3928571428571 39.4166666666667  C 37.2953869047619 39.4166666666667  35.2213541666667 39.9672309027778  32.1707589285714 41.068359375  C 28.6365327380952 42.3561197916667  25.6882440476191 43  23.3258928571429 43  C 20.6845238095238 43  18.5453869047619 42.2768012152778  16.9084821428571 40.8304036458333  C 15.2715773809524 39.3840060763889  14.4624255952381 37.3543836805556  14.4810267857143 34.7415364583333  L 14.5089285714286 34.6015625  C 13.374255952381 33.1831597222222  12.8069196428571 31.5221354166667  12.8069196428571 29.6184895833333  C 12.8069196428571 29.2078993055556  12.8348214285714 28.806640625  12.890625 28.4147135416667  C 12.2767857142857 27.3509114583333  11.9326636904762 26.2404513888889  11.8582589285714 25.0833333333333  L 7.14285714285714 25.0833333333333  C 5.18973214285714 25.0833333333333  3.51097470238095 24.3741319444444  2.10658482142857 22.9557291666667  C 0.70219494047619 21.5373263888889  0 19.8483072916667  0 17.888671875  C 0 15.9663628472222  0.706845238095238 14.2960069444444  2.12053571428571 12.8776041666667  C 3.53422619047619 11.4592013888889  5.20833333333333 10.75  7.14285714285714 11  L 17.578125 11  C 17.1688988095238 9.63020833333334  16.9642857142857 8.43576388888889  16.9642857142857 7.16666666666667  C 16.9642857142857 4.88975694444444  17.7222842261905 3.12608506944444  19.23828125 1.87565104166667  C 20.7542782738095 0.625217013888885  22.6748511904762 0  25 0  C 25.7068452380952 0  26.3532366071429 0.163302951388885  26.9391741071429 0.489908854166665  C 27.5251116071429 0.81651475694444  28.0366443452381 1.27842881944444  28.4737723214286 1.87565104166667  C 28.9109002976191 2.47287326388889  29.2875744047619 3.06076388888889  29.6037946428571 3.63932291666667  C 29.9200148809524 4.21788194444444  30.2641369047619 4.88975694444444  30.6361607142857 5.65494791666667  C 31.0081845238095 6.42013888888888  31.3151041666667 6.99869791666667  31.5569196428571 7.390625  C 32.2079613095238 8.41710069444444  33.1380208333333 9.62087673611111  34.3470982142857 11.001953125  C 34.3843005952381 11.0579427083333  34.5145089285714 11.2165798611111  34.7377232142857 11.4778645833333  C 34.9609375 11.7391493055556  35.1376488095238 11.9397786458333  35.2678571428571 12.0797526041667  C 35.3980654761905 12.2197265625  35.5887276785714 12.4203559027778  35.83984375 12.681640625  C 36.0909598214286 12.9429253472222  36.3141741071429 13.1528862847222  36.5094866071429 13.3115234375  C 36.7047991071429 13.4701605902778  36.9140625 13.6381293402778  37.1372767857143 13.8154296875  C 37.3604910714286 13.9927300347222  37.5790550595238 14.1233723958333  37.79296875 14.2073567708333  C 38.0068824404762 14.2913411458333  38.2068452380952 14.3333333333333  38.3928571428571 14.3333333333333  L 46.4285714285714 14.3333333333333  C 47.4144345238095 14.3333333333333  48.2561383928571 14.6832682291667  48.9536830357143 15.3831380208333  Z " fill-rule="nonzero" fill="#ffffff" stroke="none" transform="matrix(1 0 0 1 360 653 )" />
  </g>
</svg>